<svg xmlns="http://www.w3.org/2000/svg" xmlns:xlink="http://www.w3.org/1999/xlink" viewBox="0 0 1200 1200"><defs><style>.cls-1{isolation:isolate;}.cls-2{fill:#227dac;}.cls-3{fill:#e1e2e3;}.cls-4{fill:#9297a2;}.cls-5{fill:#152a51;}.cls-6{fill:#fdfcf3;}.cls-7{fill:#99d6f5;}.cls-8{fill:#70c1de;}.cls-9{fill:#1a4b96;}.cls-10{fill:#f184b4;}.cls-11{fill:#443988;}.cls-12{fill:#1a4b95;}.cls-13{fill:#f184b2;}.cls-14{fill:#eaea9b;}.cls-15{fill:#80431d;}.cls-16{fill:#182727;}.cls-17{fill:#121515;}.cls-18{fill:#f59341;}.cls-19{opacity:0.65;mix-blend-mode:soft-light;}.cls-20{fill:url(#linear-gradient);}.cls-21{fill:url(#linear-gradient-2);}.cls-22{fill:url(#linear-gradient-3);}.cls-23{fill:url(#linear-gradient-4);}.cls-24{fill:url(#linear-gradient-5);}.cls-25{fill:url(#linear-gradient-6);}</style><linearGradient id="linear-gradient" x1="600" y1="865.35" x2="600" y2="351.71" gradientUnits="userSpaceOnUse"><stop offset="0" stop-color="#c57db2"/><stop offset="1" stop-color="#56bc80"/></linearGradient><linearGradient id="linear-gradient-2" x1="950.74" y1="865.35" x2="950.74" y2="576.29" xlink:href="#linear-gradient"/><linearGradient id="linear-gradient-3" x1="950.77" y1="453.82" x2="950.77" y2="446.5" xlink:href="#linear-gradient"/><linearGradient id="linear-gradient-4" x1="951.06" y1="865.35" x2="951.06" y2="351.71" xlink:href="#linear-gradient"/><linearGradient id="linear-gradient-5" x1="951.38" y1="578.17" x2="951.38" y2="322.86" xlink:href="#linear-gradient"/><linearGradient id="linear-gradient-6" x1="842.69" y1="865.35" x2="842.69" y2="576.52" xlink:href="#linear-gradient"/></defs><g class="cls-1"><g id="Layer_1" data-name="Layer 1"><path class="cls-2" d="M128.93,806.1c-22.79-57.61-9-132.7,43.4-165.7,22-13.85,49.93-20.54,64.83-41.83C270.22,546,206.47,451,214.5,382.57,211,266.45,252,214.72,393.91,204.54s233.52,74.94,265.74,93.75c70.61,41.22,162.48-2.68,241.37,18.76,70.15,19.06,119.47,95.55,107.88,167.31-9.45,58.49-53.5,112.47-41.85,170.56,30.9,106,199.69,160.38,60,285.72-73,51.6-168,33.79-252.07,38.61-60.37,3.67-119.25,19.28-178.35,32.12-120.09,32.05-253.31,27.64-339.43-71.71C209.44,895.46,154.62,871,128.93,806.1Z"/><path class="cls-3" d="M528.52,628.48l-.14,97c0,.16,0,.32,0,.48l159.37.23c0-.16,0-.32,0-.48l.14-97a8.42,8.42,0,0,0-.72-3.44,8.47,8.47,0,0,0-3.49-3.88,8.33,8.33,0,0,0-4.23-1.14L537,620A8.47,8.47,0,0,0,528.52,628.48Z"/><path class="cls-4" d="M525.55,725.5c0,.17,0,.32,0,.49h0l0,12.26,195.05.29a5.29,5.29,0,0,0,5.28-5.27V731a4.71,4.71,0,0,0-4.7-4.71l-30.57,0c0-.17,0-.32,0-.49l.14-97a11.16,11.16,0,0,0-1-4.6,11.43,11.43,0,0,0-3.1-4.09,10.78,10.78,0,0,0-1.56-1.09,11.19,11.19,0,0,0-5.64-1.52L537,617.21a11.29,11.29,0,0,0-11.3,11.27Zm3-97A8.47,8.47,0,0,1,537,620l142.49.21a8.33,8.33,0,0,1,4.23,1.14,8.47,8.47,0,0,1,3.49,3.88,8.42,8.42,0,0,1,.72,3.44l-.14,97c0,.16,0,.32,0,.48L528.39,726c0-.16,0-.32,0-.48Z"/><path class="cls-3" d="M528.38,728.82v6.6l192.21.28a2.44,2.44,0,0,0,2.45-2.44V731a1.87,1.87,0,0,0-1.86-1.88Z"/><rect class="cls-4" x="703.3" y="727.44" width="2.83" height="10.2" transform="translate(-28.84 1436.18) rotate(-89.92)"/><path class="cls-4" d="M695.34,733.94h.47a1.42,1.42,0,0,0,0-2.84h-.48a1.42,1.42,0,0,0,0,2.84Z"/><rect class="cls-4" x="531.61" y="732.04" width="5.16" height="2.83" transform="translate(-200.04 1266.59) rotate(-89.92)"/><rect class="cls-4" x="537.71" y="732.05" width="5.16" height="2.83" transform="translate(-193.96 1272.69) rotate(-89.92)"/><rect class="cls-4" x="543.81" y="732.06" width="5.16" height="2.83" transform="translate(-187.88 1278.8) rotate(-89.92)"/><path class="cls-5" d="M545.26,629.09H671.53a6,6,0,0,1,6,6V716a0,0,0,0,1,0,0H539.29a0,0,0,0,1,0,0V635.06A6,6,0,0,1,545.26,629.09Z"/><rect class="cls-6" x="567.41" y="634.39" width="85.75" height="81.61"/><rect class="cls-4" x="595.57" y="644.67" width="29.43" height="4.4"/><rect class="cls-4" x="581.84" y="658.83" width="63.54" height="2.2"/><rect class="cls-4" x="575.57" y="658.83" width="3.13" height="2.2" transform="translate(1154.27 1319.86) rotate(180)"/><rect class="cls-4" x="575.57" y="664.93" width="3.13" height="2.2" transform="translate(1154.27 1332.05) rotate(180)"/><rect class="cls-4" x="575.57" y="671.02" width="3.13" height="2.2" transform="translate(1154.27 1344.24) rotate(180)"/><rect class="cls-4" x="581.84" y="664.93" width="63.54" height="2.2"/><rect class="cls-4" x="581.84" y="671.02" width="63.54" height="2.2"/><rect class="cls-4" x="581.84" y="681.17" width="45.4" height="2.2"/><rect class="cls-4" x="581.84" y="687.23" width="54.86" height="2.2"/><rect class="cls-4" x="581.84" y="693.28" width="54.86" height="2.2"/><path class="cls-7" d="M342.45,740.53l-162.92.24-27.57-84c-16.87-51.36,14.49-102.34,67.66-107l.24,0c.71-.07,1.41-.11,2.12-.15,1.81-.13,3.63-.18,5.47-.18,2.5,0,5,.09,7.45.3l.89.08,2.07.2a94.2,94.2,0,0,1,41.81,15.48q3.81,2.53,7.35,5.44a97.93,97.93,0,0,1,26.23,32.89v0a94.28,94.28,0,0,1,4.4,10.63q.93,2.67,1.68,5.4,1.05,3.75,1.78,7.63l3.14,16.61,4.62,24.5h0l.41,2.15,7.3,38.69h0Z"/><path class="cls-8" d="M359.17,740.51l-162.91.23-27.58-84c-16.79-51.17,14.28-102,67.11-106.92l.56-.06.24,0c.71-.06,1.41-.11,2.11-.14,1.81-.13,3.63-.18,5.48-.18,2.5,0,5,.09,7.45.29,1,.08,2,.18,3,.29a92.41,92.41,0,0,1,26.62,7.17,96.83,96.83,0,0,1,24.88,15.71,98.92,98.92,0,0,1,19.19,22.47,95.65,95.65,0,0,1,8.37,17.09,92.72,92.72,0,0,1,4.19,15.06l.16.81,7.61,40.36,8.63,45.74,1.52,8Z"/><path class="cls-7" d="M857.55,739.85l162.92.24,27.57-84c16.87-51.36-14.49-102.34-67.66-107l-.24,0c-.71-.07-1.41-.11-2.12-.15-1.81-.13-3.63-.18-5.47-.18q-3.59,0-7.11.27l-.34,0-.89.08-2.07.2a93.24,93.24,0,0,0-29.31,8.38,99.15,99.15,0,0,0-41.18,36.63h0s0,0,0,0l-.85,1.41c-.89,1.45-1.73,2.94-2.53,4.45a93.78,93.78,0,0,0-5.2,11.56,92.58,92.58,0,0,0-4.18,15.05L874.52,650l-14.95,79.16Z"/><path class="cls-8" d="M840.83,739.83l162.91.23,27.58-84c16.67-50.76-13.77-101.17-65.85-106.8l-1.26-.12-.56-.06-.24,0c-.7-.06-1.41-.11-2.11-.14-1.81-.13-3.63-.18-5.47-.18q-3.76,0-7.46.29c-1,.08-2,.18-3,.29a91.55,91.55,0,0,0-13.55,2.58q-4.3,1.15-8.46,2.72h0a96.94,96.94,0,0,0-28,16.28c-1.5,1.26-3,2.56-4.42,3.92a98.37,98.37,0,0,0-10.09,11c-1,1.32-2,2.67-3,4.05a97.69,97.69,0,0,0-5.8,9.3,94.67,94.67,0,0,0-5.75,12.58,92.72,92.72,0,0,0-4.19,15.06l-7.37,39h0l-.71,3.82Z"/><path class="cls-9" d="M951.89,474.1c-2.1,2.28-6.06,6.43-8.11,8.8-6.29,7.28-18,6.12-23.42,1.3h0c-5.44-4.82-8.84-18.21-1.4-24.2,2.42-1.94,5.83-6.65,8.08-8.81,6.93-6.64,17.14-7,23.66-1.07h0C957.23,456.06,958.33,467.1,951.89,474.1Z"/><path class="cls-9" d="M965.55,581.81c-32.92,6.26-67.63,12.68-100.59,18.64-4,.73-6-1-6.73-4.72-4.59-24.91-11.15-56.73-14.79-80.33-4.64-30,11.8-48.95,38-56.59a116,116,0,0,1,17.9-3.31c27.21-2.27,49.39,9.49,55.79,39.2,5,23.34,10.35,55.39,15,80.3C970.82,578.75,969.55,581.05,965.55,581.81Z"/><path class="cls-10" d="M918.88,621.18l-.5.07a23.53,23.53,0,0,1-26.58-22.6c-.58-18-1.23-36-1.74-54q20-1.84,40-3.76,4.27,26.46,8.94,52.86A23.55,23.55,0,0,1,918.88,621.18Z"/><path class="cls-10" d="M879.39,574.66a55.78,55.78,0,0,0,8.58-1.58c20.27-4.86,49.42-21.51,47.68-45.53a103.81,103.81,0,0,0-3.38-18.24c-6.19-22.33-19.21-30.64-41.93-29a47.55,47.55,0,0,0-8.6,1.6c-21.94,6.42-30.75,19.29-28.86,42,.44,5.33,2.55,13.77,3.26,18.06C859.17,560.22,857.49,575.6,879.39,574.66Z"/><path class="cls-10" d="M923.35,524.34c1.77,9.8,10.06,15,19.65,12.54a18.32,18.32,0,0,0,13.83-21.16c-1.75-9.79-10.07-15-19.67-12.54A18.27,18.27,0,0,0,923.35,524.34Z"/><path class="cls-9" d="M875.84,506.74c-1.93,2.45-6.29,6.2-8.38,8.54-6.41,7.19-18.18,5.56-23.43.61h0c-5.25-4.95-8.31-18.52-.63-24.21,2.49-1.85,5.91-6.62,8.34-8.57,7.48-6,16.73-7.2,23.86-.2h0C882.73,489.9,881.79,499.22,875.84,506.74Z"/><path class="cls-9" d="M895.82,510.14c-2.82-1.26-8.28-3.15-11-4.65-8.41-4.6-12.79-12.94-8.92-22.07h0c3.86-9.13,12.91-11.83,22-8.93,3,.94,8.17,3.38,11,4.67A17,17,0,0,1,918,501h0C914.63,509,904.5,514,895.82,510.14Z"/><path class="cls-9" d="M915.41,512.51c-1.07-5.32-2.43-14-3-19.36-.71-6.25,2.71-11.07,8.62-12h0c5.9-.93,10.63,2.6,11.87,8.77,1.07,5.33,2.43,14,3,19.37.71,6.26-2.72,11.06-8.62,12h0C921.38,522.22,916.64,518.69,915.41,512.51Z"/><path class="cls-10" d="M789.33,682.39l39.54-19.19a22.58,22.58,0,0,0,6.53-32.7h0a22.64,22.64,0,0,0-33.51-2.93l-31.81,19.54a20.29,20.29,0,0,0-8.47,24.41h0A20.13,20.13,0,0,0,789.33,682.39Z"/><path class="cls-11" d="M884.34,639.38l-50.58,26.91-24-45.06c-1.29-2.42,0-5.63,2.91-7.17L858,589.94a18.41,18.41,0,0,1,24.92,7.44l9.17,17.2A18.35,18.35,0,0,1,884.34,639.38Z"/><path class="cls-11" d="M847.12,739.84l137.79.2c-2-7.56-4.09-14.91-5.81-22.95a161.25,161.25,0,0,1-3.38-24.49c-.42-7-.51-16.23-.4-26.44s.42-21.17.8-31.72c.58-15.9,1.32-30.69,1.8-39.66a8.39,8.39,0,0,0-6.6-8.65h0a9,9,0,0,0-1.74-.19L869,585.79a16.29,16.29,0,0,0-2.9.25h0a16.36,16.36,0,0,0-3.7,1h0a17.61,17.61,0,0,0-5.12,3.24,15.84,15.84,0,0,0-1.93,2.09h0a17,17,0,0,0-2.88,5.3,17.22,17.22,0,0,0-.85,6.68c1.11,16.37,2.6,40.74,3.23,61.39h0c0,1,.06,2,.1,3,.25,9.06.31,17.28.08,23.58-.58,16.22-3.36,28.48-6.23,40.55C848.2,735.27,847.65,737.54,847.12,739.84Z"/><path class="cls-10" d="M788.2,656.83l-77.27-69.66-8.6,7.34-8.59,7.33,72.06,77.75a14.25,14.25,0,0,0,20.7,1.52h0C792.31,675.73,793.65,662.69,788.2,656.83Z"/><path class="cls-10" d="M696.36,564.16h0a11.9,11.9,0,0,0-9.21,13.62L690,595.13a12.07,12.07,0,0,0,14.38,9.92l1.87-.4a11.92,11.92,0,0,0,8.92-14.91l-4.7-17A12.07,12.07,0,0,0,696.36,564.16Z"/><path class="cls-10" d="M709.53,579.53l-.83,11.05a4,4,0,0,0,3.66,4.32l.48,0a4,4,0,0,0,4.26-3.65l.83-11a4,4,0,0,0-3.66-4.32l-.48,0A3.94,3.94,0,0,0,709.53,579.53Z"/><path class="cls-12" d="M306,442l29.65,4.7a36,36,0,0,1,29.86,40.73l-4.4,29.75a35.05,35.05,0,0,1-40.23,29.61l-29.65-4.71a36,36,0,0,1-29.85-40.72l4.39-29.76A35.05,35.05,0,0,1,306,442Z"/><path class="cls-13" d="M271.73,607.4c17.61,2.44,35.16,5.3,52.71,8.19,1.06-27.88,2.56-55.72,3.68-83.6q-20.78-2.4-41.55-4.88Q279.58,567.34,271.73,607.4Z"/><path class="cls-13" d="M339.68,562.18l-9.1-1.44c-20.5-3.25-54.41-25.71-51.37-46.28l2.85-19.34a37.14,37.14,0,0,1,42.63-31.37l9.09,1.44a38.13,38.13,0,0,1,31.63,43.16l-2.85,19.33C359.52,548.26,360.18,565.44,339.68,562.18Z"/><path class="cls-12" d="M324.6,492.27l30.72,12.88a19.43,19.43,0,0,0,25.58-10.58h0a19.93,19.93,0,0,0-10.77-25.82l-30.72-12.88a19.43,19.43,0,0,0-25.58,10.58h0A19.93,19.93,0,0,0,324.6,492.27Z"/><path class="cls-12" d="M295.51,494.37l10-1.43A19.48,19.48,0,0,0,322,470.65h0a19.88,19.88,0,0,0-22.35-16.78l-10,1.43a19.49,19.49,0,0,0-16.47,22.3h0A19.86,19.86,0,0,0,295.51,494.37Z"/><path class="cls-13" d="M292.37,510.83c-1.54,10.64-10.64,16.08-20.27,13.83a20,20,0,0,1-15.42-22.07c1.51-10.63,10.65-16.08,20.29-13.84A19.9,19.9,0,0,1,292.37,510.83Z"/><path class="cls-13" d="M457.28,722.94l-.7,13.67-.19,3.76-38.75.06-14.2-3.66-25.81-6.65-.28-.07-7-1.8-1.89-.49h0l-5.87-1.51-.55-.14-6.9-1.78-3.4-.88-3.92-8.78L345,708.31l-15.18-34c-.24-.57-.47-1.14-.71-1.7h0c-.29-.71-.57-1.39-.84-2.08h0c-3.61-9.07-6-17.3-4.62-24.5a20.23,20.23,0,0,1,7.4-11.91A26.54,26.54,0,0,1,348,628a27.15,27.15,0,0,1,16.21,5.34l.54.41a27.23,27.23,0,0,1,5.92,6.39l6.84,26.23,7.65,29.28,71,26.9Z"/><path class="cls-13" d="M497.36,739.16a10.92,10.92,0,0,1-.12,1.15l-49.59.07a14.55,14.55,0,0,1-.18-3.18l.12-2.31a14.27,14.27,0,0,1,8.55-12.38,14,14,0,0,1,7.4-1.09l20.93,2.46A14.65,14.65,0,0,1,497.36,739.16Z"/><path class="cls-14" d="M377.56,599.11l9.2,66-61.18,8c-3.29.43-6.4-2.39-6.94-6.3l-6.08-58.46c.15-14.3,5.27-26.06,18.56-27.79l19-2.46A24.63,24.63,0,0,1,377.56,599.11Z"/><path class="cls-14" d="M365.66,595.28l-.4,17.09-.44,19L364,666.27l-1.17,50.51-.18,7.43-.37,16.29-148,.22-3.57-106.08v-.06l-1.36-40s0,0,0,0l-.1-3.18c3.08-13.74,19.6-26.63,30.58-25.31l39,4,8.19.84,19.07,1.94,20.11,2,19.11,2h0l5.77.59A16.31,16.31,0,0,1,365.66,595.28Z"/><rect class="cls-15" x="188.51" y="737.94" width="857.68" height="4.5" transform="translate(-1.08 0.9) rotate(-0.08)"/><path class="cls-10" d="M881.22,727.71s17,16.18,17.54,20.71l80.34-31.33,25.11-9.7-3-49.19-.45-7.33a19.11,19.11,0,0,0-38.07,3.45l.72,15.44.93,20Z"/><path class="cls-11" d="M945.44,617.13l17,52.91s31.5-9.49,46.94-14.42c3.31-1.07,3.34-4,3-6.76-4.91-13.69-15.83-35.87-23-49.91a23.86,23.86,0,0,0-21.24-13h0A23.88,23.88,0,0,0,945.44,617.13Z"/><path class="cls-10" d="M862.05,744.89h0a11.89,11.89,0,0,0,13.69,9.1l17.33-3a12.09,12.09,0,0,0,9.81-14.46l-.41-1.86a11.93,11.93,0,0,0-15-8.82l-16.92,4.83A12.07,12.07,0,0,0,862.05,744.89Z"/><polygon class="cls-16" points="516.01 736.26 391.7 736.26 401.64 720.13 516.01 720.13 516.01 736.26"/><rect class="cls-16" x="463.21" y="617.21" width="8.42" height="106.95"/><polygon class="cls-16" points="488.63 624.46 396.63 597.48 406.71 566.2 497.14 598.06 488.63 624.46"/><rect class="cls-17" x="397.75" y="570.53" width="44.44" height="34.43" rx="6.55" transform="translate(200.68 -100.54) rotate(17.88)"/><rect class="cls-16" x="460.6" y="586.04" width="14.89" height="2.27" transform="translate(224.86 -123.25) rotate(19.66)"/><path class="cls-16" d="M460.34,615.92h14.15a0,0,0,0,1,0,0v15a1.92,1.92,0,0,1-1.92,1.92H462.26a1.92,1.92,0,0,1-1.92-1.92v-15A0,0,0,0,1,460.34,615.92Z"/><rect class="cls-16" x="391.7" y="736.26" width="124.31" height="2.81"/><polygon class="cls-16" points="735.39 736.26 859.7 736.26 849.77 720.13 735.39 720.13 735.39 736.26"/><rect class="cls-16" x="779.77" y="617.21" width="8.42" height="106.95" transform="translate(1567.97 1341.37) rotate(180)"/><polygon class="cls-16" points="762.77 624.46 854.78 597.48 844.69 566.2 754.26 598.06 762.77 624.46"/><rect class="cls-17" x="809.21" y="570.53" width="44.44" height="34.43" rx="6.55" transform="translate(1803.14 891.91) rotate(162.12)"/><rect class="cls-16" x="775.91" y="586.04" width="14.89" height="2.27" transform="translate(1718.6 876.55) rotate(160.34)"/><path class="cls-16" d="M778.83,615.92h10.31a1.92,1.92,0,0,1,1.92,1.92v15a0,0,0,0,1,0,0H776.91a0,0,0,0,1,0,0v-15A1.92,1.92,0,0,1,778.83,615.92Z" transform="translate(1567.97 1248.76) rotate(180)"/><rect class="cls-16" x="735.39" y="736.26" width="124.31" height="2.81" transform="translate(1595.09 1475.32) rotate(180)"/><path class="cls-13" d="M377.91,719.68l-.37,7.07-.34,6.6-.29,5.66-39.12,0-91.45-18.83L224.4,671.09c-.24-.57-.47-1.13-.71-1.69-6.35-15.48-9.9-28.63,1.93-38.51a26.5,26.5,0,0,1,17-6.15,27.13,27.13,0,0,1,22.66,12.14l6.84,26.23,7.65,29.28L335.9,708h0l11.85,3.29,5.8,1.61,8.6,2.39,14.45,4Z"/><path class="cls-13" d="M418,735.9c0,.42-.06.83-.11,1.24a13.52,13.52,0,0,1-.38,1.81l-48.75.07a14.49,14.49,0,0,1-.64-5.08l.12-2.3a14.29,14.29,0,0,1,8.39-12.33,14.29,14.29,0,0,1,7.55-1.15l21,2.46A14.65,14.65,0,0,1,418,735.9Z"/><path class="cls-14" d="M272.13,595.9l9.2,66-61.18,8c-3.29.43-6.39-2.39-6.94-6.3l-6.07-58.46c.14-14.31,5.26-26.06,18.56-27.79l19-2.47A24.62,24.62,0,0,1,272.13,595.9Z"/><polygon class="cls-16" points="444.86 793.34 349.96 793.34 357.54 774.9 444.86 774.9 444.86 793.34"/><path class="cls-16" d="M390.38,770.44h13.11a2.25,2.25,0,0,1,2.25,2.25v2.21a0,0,0,0,1,0,0H388.12a0,0,0,0,1,0,0v-2.21A2.25,2.25,0,0,1,390.38,770.44Z"/><path class="cls-16" d="M413.79,770.44H426.9a2.25,2.25,0,0,1,2.25,2.25v2.21a0,0,0,0,1,0,0H411.54a0,0,0,0,1,0,0v-2.21A2.25,2.25,0,0,1,413.79,770.44Z"/><rect class="cls-16" x="444.86" y="779.46" width="2.14" height="9.76"/><path class="cls-16" d="M548.63,785.84H445.93v-3l104.94-.09A26.4,26.4,0,0,0,548.63,730H510.77v-3h37.86a29.4,29.4,0,0,1,13.14,55.7l93.2-.09a37.35,37.35,0,0,0,37.27-37.3A18.33,18.33,0,0,1,710.55,727h29.12v3H710.55a15.33,15.33,0,0,0-15.31,15.31A40.36,40.36,0,0,1,655,785.65l-104,.1Q549.83,785.84,548.63,785.84Z"/><ellipse class="cls-17" cx="272.93" cy="507.02" rx="21.13" ry="20.31" transform="translate(-141.83 107.61) rotate(-17.79)"/><path class="cls-18" d="M259,501.23a14.38,14.38,0,0,0,7.65,19.43,15.81,15.81,0,0,0,20.26-7.86,14.38,14.38,0,0,0-7.66-19.43A15.81,15.81,0,0,0,259,501.23Zm1.66.69A13.93,13.93,0,0,1,278.48,495a12.66,12.66,0,0,1,6.75,17.13,13.92,13.92,0,0,1-17.85,6.94A12.66,12.66,0,0,1,260.64,501.92Z"/><path class="cls-16" d="M277.4,491.49c1.38-5.52,2.22-11,3.23-16.33a127.1,127.1,0,0,1,3.72-15.38L285,458l.74-1.7c.25-.56.46-1.16.75-1.68s.59-1,.88-1.56l.44-.79c.15-.25.34-.46.51-.69l1-1.42c.36-.45.8-.79,1.18-1.23a6,6,0,0,1,1.27-1.16c3.58-2.89,8.89-4.25,14.71-4.55h0a1,1,0,0,0,.93-1,.9.9,0,0,0-.61-.83c-1.41-.5-2.86-1-4.36-1.35-.76-.14-1.54-.24-2.32-.33a12.64,12.64,0,0,0-2.39-.2,21,21,0,0,0-4.95.51,19.53,19.53,0,0,0-2.5.65l-2.39,1.07a11.91,11.91,0,0,0-2.27,1.32,25.19,25.19,0,0,0-2.13,1.55,27.12,27.12,0,0,0-3.49,3.72l-1.5,2c-.46.69-.81,1.4-1.22,2.1s-.81,1.41-1.15,2.12l-.92,2.16a59.62,59.62,0,0,0-4,17.47,73.37,73.37,0,0,0,.47,17.22,2.8,2.8,0,0,0,3.26,2.31,3,3,0,0,0,2.41-2.16Z"/><ellipse class="cls-17" cx="937.68" cy="520.52" rx="20.31" ry="21.13" transform="translate(155.61 1254.38) rotate(-72.21)"/><path class="cls-18" d="M931.39,506.88a14.36,14.36,0,0,0-7.66,19.42A15.8,15.8,0,0,0,944,534.16a14.37,14.37,0,0,0,7.66-19.42A15.81,15.81,0,0,0,931.39,506.88Zm11.85,25.67a13.93,13.93,0,0,1-17.86-6.93,12.69,12.69,0,0,1,6.75-17.14A13.94,13.94,0,0,1,950,515.42,12.66,12.66,0,0,1,943.24,532.55Z"/><path class="cls-16" d="M933.21,505c-1.38-5.52-2.22-11-3.22-16.32a128.07,128.07,0,0,0-3.72-15.38l-.61-1.81-.74-1.7c-.25-.55-.46-1.16-.75-1.68s-.59-1-.88-1.56l-.44-.79c-.16-.24-.35-.45-.52-.69l-1-1.41c-.37-.45-.8-.8-1.19-1.24a6.09,6.09,0,0,0-1.27-1.16c-3.58-2.88-8.89-4.25-14.71-4.55h0a1,1,0,0,1-.94-1,.92.92,0,0,1,.62-.83c1.41-.5,2.86-1,4.35-1.35.77-.13,1.54-.23,2.33-.33a13.45,13.45,0,0,1,2.39-.2,21,21,0,0,1,4.95.51,20,20,0,0,1,2.5.66l2.39,1.07a11.05,11.05,0,0,1,2.26,1.32,20.64,20.64,0,0,1,2.13,1.54,26.59,26.59,0,0,1,3.5,3.72l1.49,2c.47.69.82,1.4,1.23,2.1s.81,1.41,1.15,2.13l.91,2.15a59.33,59.33,0,0,1,4,17.47,73.37,73.37,0,0,1-.47,17.22,2.8,2.8,0,0,1-3.27,2.31,2.93,2.93,0,0,1-2.4-2.16Z"/><g class="cls-19"><path class="cls-20" d="M980.38,549.09l-.24,0c-.71-.07-1.41-.11-2.12-.15-1.81-.13-3.63-.18-5.47-.18q-3.59,0-7.11.27c-3.36-18.82-6.89-38.55-10.28-54.31a57.52,57.52,0,0,0-6.48-17.16l3.21-3.44c6.44-7,5.34-18-1.19-24S934,444.55,927,451.19c-1.08,1-2.43,2.66-3.81,4.29a4.41,4.41,0,0,0-.54-.24l-2.39-1.07a20,20,0,0,0-2.5-.66,21,21,0,0,0-4.95-.51,13.45,13.45,0,0,0-2.39.2c-.79.1-1.56.2-2.33.33-1.49.39-2.94.85-4.35,1.35a.94.94,0,0,0-.48.4c-1.3,0-2.6.11-3.93.22a116,116,0,0,0-17.9,3.31C863.54,464,850.19,474.53,845,490.24a15.16,15.16,0,0,1-1.62,1.44c-7.38,5.46-4.85,18.19,0,23.58,0,0,0,.09,0,.13l-.73-.61.73.61h0c3.39,21.93,9.29,50.94,13.78,74.92l-1.37.73-6.54-20.27a6.54,6.54,0,0,0-4.54-4.31l-.08-.27-.41.15a6.45,6.45,0,0,0-3.22.21l-29.82,9.61a6.55,6.55,0,0,0-3.76,3.14l-16.9,6-.6-1.67-14,5,.57,1.6-22.27,7.84,8.52,26.4,14.13-4.14v10.59a1.92,1.92,0,0,0,1.92,1.92h.94v8.32l-5.33,3.28-57.63-52a3.85,3.85,0,0,0,.29-1.18l.83-11a4,4,0,0,0-3.66-4.32l-.48,0a3.93,3.93,0,0,0-2.33.53l-1-3.62a12.07,12.07,0,0,0-14.1-8.63,11.9,11.9,0,0,0-9.21,13.62L690,595.13a12.1,12.1,0,0,0,4.74,7.79l71.07,76.67a14.31,14.31,0,0,0,14,5v35.57H735.39V727H723.73a4.7,4.7,0,0,0-2.56-.77l-30.57,0c0-.17,0-.32,0-.49l.14-97a11.16,11.16,0,0,0-1-4.6,11.43,11.43,0,0,0-3.1-4.09,10.78,10.78,0,0,0-1.56-1.09,11.19,11.19,0,0,0-5.64-1.52L537,617.21a11.29,11.29,0,0,0-11.3,11.27l-.14,97c0,.17,0,.32,0,.49h0v1H516v-6.91H471.63v-87.3h.94a1.92,1.92,0,0,0,1.92-1.92V620.32l14.14,4.14,8.51-26.4-22.27-7.84.57-1.6-14-5-.59,1.67-16.91-6a6.52,6.52,0,0,0-3.76-3.14l-29.82-9.61a6.42,6.42,0,0,0-3.21-.21l-.42-.15-.08.27a6.56,6.56,0,0,0-4.54,4.31l-6.54,20.29a6.55,6.55,0,0,0,1.16,6.15l-.08.26.41.13a6.62,6.62,0,0,0,2.74,1.71l29.81,9.62a6.54,6.54,0,0,0,4.89-.36l25.86,7.59v14.74a1.92,1.92,0,0,0,1.92,1.92h.95v87.3H449.87l-64.69-24.52-7.65-29.28h0l9.23-1.2-9.2-66a24.66,24.66,0,0,0-24.21-21.25,17,17,0,0,0-2.26-.41l-5.77-.59h0l-19.11-2,.69-14.93c1.27.31,2.51.57,3.69.76l9.1,1.44c20.5,3.26,19.84-13.92,22.88-34.5l2.85-19.33c.09-.63.17-1.26.23-1.88a19.34,19.34,0,0,0,15.26-11.9h0a19.93,19.93,0,0,0-10.77-25.82l-8.54-3.58a35.85,35.85,0,0,0-25.94-18.48l-28.2-4.47h0a.9.9,0,0,0-.61-.83c-1.41-.5-2.86-1-4.36-1.35-.76-.14-1.54-.24-2.32-.33a12.64,12.64,0,0,0-2.39-.2,21,21,0,0,0-4.95.51,19.53,19.53,0,0,0-2.5.65l-2.39,1.07a11.91,11.91,0,0,0-2.27,1.32,25.19,25.19,0,0,0-2.13,1.55,37.78,37.78,0,0,0-3.17,3.29,35.1,35.1,0,0,0-14.59,23.7l-2.6,17.61a21.28,21.28,0,0,0-9.43,9.86,19.77,19.77,0,0,0,10.53,26.73,20.79,20.79,0,0,0,2.93.94,35.92,35.92,0,0,0,17.05,13.5q-1.51,8.46-3.05,16.91A92.42,92.42,0,0,0,254.59,550c-1-.11-2-.21-3-.29-2.46-.2-4.95-.3-7.45-.29-1.85,0-3.67.05-5.48.18-.7,0-1.4.08-2.11.14l-.24,0-.56.06-.89-.08c-2.46-.21-5-.3-7.45-.3-1.84,0-3.66.05-5.47.18-.71,0-1.41.08-2.12.15l-.24,0c-53.17,4.64-84.53,55.62-67.66,107l27.57,84h9v2.31L571,742.51a26.38,26.38,0,0,1-20.17,40.24L447,782.84v-3.38h-2.14V774.9H429.15v-2.21a2.25,2.25,0,0,0-2.25-2.25H413.79a2.25,2.25,0,0,0-2.25,2.25v2.21h-5.8v-2.21a2.26,2.26,0,0,0-2.26-2.25h-13.1a2.26,2.26,0,0,0-2.26,2.25v2.21H357.54L350,793.34h94.9v-4.12H447v-3.38H548.63q1.2,0,2.37-.09l104-.1a40.36,40.36,0,0,0,40.27-40.3,14.94,14.94,0,0,1,.3-3l166.24-.24a11.66,11.66,0,0,0,.27,2.8,11.89,11.89,0,0,0,13.69,9.1l17.33-3a12.27,12.27,0,0,0,5.69-2.61h0L915.2,742l131-.19v-4.5l-24.83,0L1048,656.07C1064.91,604.71,1033.55,553.73,980.38,549.09ZM788.2,632.83h.94a1.92,1.92,0,0,0,1.92-1.92V616.17l25.86-7.59a6.54,6.54,0,0,0,4.89.36l1.1-.36-10.29,5.48c-2.9,1.54-4.2,4.75-2.91,7.17l.72,1.35a22.88,22.88,0,0,0-8.54,5L788.2,636Zm0,50.07c.38-.16.76-.33,1.13-.51l39.54-19.19a23.47,23.47,0,0,0,2.35-1.65l2.54,4.74,20.65-11c.15,3.57.28,7.08.38,10.5h0l-.71,3.82-9.53,50.5H788.2Zm-52.81,53.36v1.51l-12.14,0a5.24,5.24,0,0,0,2.61-4.52V731a4.17,4.17,0,0,0-.1-.94h9.62ZM525.54,730v8H516V730Zm166.7,15.31A37.35,37.35,0,0,1,655,782.65l-93.2.09a29.39,29.39,0,0,0,12.74-40.24l118-.17A17.76,17.76,0,0,0,692.24,745.35Z"/><path class="cls-21" d="M950.7,450.12l.07,0Z"/><path class="cls-22" d="M950.77,450.16Z"/><path class="cls-23" d="M950.77,450.16l.59.32Z"/><path class="cls-24" d="M951.36,450.48Z"/><path class="cls-25" d="M842.71,514.78Z"/></g></g></g></svg>